HIERARCHY
ROOT Root
{
  OFFSET 0.0 0.0 0.0
  CHANNELS 6 Xposition Yposition Zposition Zrotation Yrotation Xrotation
  JOINT Hips
  {
    OFFSET 0.0 100.0 0.0
    CHANNELS 6 Xposition Yposition Zposition Zrotation Yrotation Xrotation
    JOINT Spine1
    {
      OFFSET -0.013727 5.003763 -0.053727
      CHANNELS 3 Zrotation Yrotation Xrotation
      JOINT Spine2
      {
        OFFSET -0.0 7.125301 -0.029825
        CHANNELS 3 Zrotation Yrotation Xrotation
        JOINT Chest
        {
          OFFSET -1e-06 7.550063 -0.815971
          CHANNELS 3 Zrotation Yrotation Xrotation
          JOINT Neck1
          {
            OFFSET -0.181677 26.311295 -0.553348
            CHANNELS 3 Zrotation Yrotation Xrotation
            JOINT Neck2
            {
              OFFSET -3e-06 7.709397 2.302585
              CHANNELS 3 Zrotation Yrotation Xrotation
              JOINT Head
              {
                OFFSET -5e-06 6.128916 1.953709
                CHANNELS 3 Zrotation Yrotation Xrotation
                JOINT HeadEnd
                {
                  OFFSET 0.003598 16.065403 -1.835379
                  CHANNELS 3 Zrotation Yrotation Xrotation
                }
                JOINT Jaw
                {
                  OFFSET 0.002637 0.475592 3.094941
                  CHANNELS 3 Zrotation Yrotation Xrotation
                }
                JOINT LeftEye
                {
                  OFFSET 3.206381 5.380205 7.586883
                  CHANNELS 3 Zrotation Yrotation Xrotation
                }
                JOINT RightEye
                {
                  OFFSET -3.22244 5.361869 7.558234
                  CHANNELS 3 Zrotation Yrotation Xrotation
                }
              }
            }
          }
          JOINT LeftShoulder
          {
            OFFSET 1.621652 23.237164 5.113413
            CHANNELS 3 Zrotation Yrotation Xrotation
            JOINT LeftArm
            {
              OFFSET 14.919846 2e-06 -5.502326
              CHANNELS 3 Zrotation Yrotation Xrotation
              JOINT LeftForeArm
              {
                OFFSET 28.739307 0.0 -0.002588
                CHANNELS 3 Zrotation Yrotation Xrotation
                JOINT LeftHand
                {
                  OFFSET 27.093981 -1e-06 0.002609
                  CHANNELS 3 Zrotation Yrotation Xrotation
                  JOINT LeftHandThumb1
                  {
                    OFFSET 2.276482 -1.392045 3.191413
                    CHANNELS 3 Zrotation Yrotation Xrotation
                    JOINT LeftHandThumb2
                    {
                      OFFSET 4.012836 -1.828127 1.641654
                      CHANNELS 3 Zrotation Yrotation Xrotation
                      JOINT LeftHandThumb3
                      {
                        OFFSET 2.798515 0.0 -3e-06
                        CHANNELS 3 Zrotation Yrotation Xrotation
                        JOINT LeftHandThumbEnd
                        {
                          OFFSET 3.180793 -4e-06 4e-06
                          CHANNELS 3 Zrotation Yrotation Xrotation
                        }
                      }
                    }
                  }
                  JOINT LeftHandIndex1
                  {
                    OFFSET 3.247555 -0.531998 2.296169
                    CHANNELS 3 Zrotation Yrotation Xrotation
                    JOINT LeftHandIndex2
                    {
                      OFFSET 6.364578 0.01206 0.1786
                      CHANNELS 3 Zrotation Yrotation Xrotation
                      JOINT LeftHandIndex3
                      {
                        OFFSET 3.662364 0.0 0.0
                        CHANNELS 3 Zrotation Yrotation Xrotation
                        JOINT LeftHandIndex4
                        {
                          OFFSET 2.329242 4e-06 4e-06
                          CHANNELS 3 Zrotation Yrotation Xrotation
                          JOINT LeftHandIndexEnd
                          {
                            OFFSET 2.759615 -0.180537 -0.113024
                            CHANNELS 3 Zrotation Yrotation Xrotation
                          }
                        }
                      }
                    }
                  }
                  JOINT LeftHandMiddle1
                  {
                    OFFSET 3.163495 0.240981 1.000332
                    CHANNELS 3 Zrotation Yrotation Xrotation
                    JOINT LeftHandMiddle2
                    {
                      OFFSET 6.19078 -0.259278 -1.002548
                      CHANNELS 3 Zrotation Yrotation Xrotation
                      JOINT LeftHandMiddle3
                      {
                        OFFSET 4.35652 -4e-06 -1e-06
                        CHANNELS 3 Zrotation Yrotation Xrotation
                        JOINT LeftHandMiddle4
                        {
                          OFFSET 2.996877 -8e-06 0.0
                          CHANNELS 3 Zrotation Yrotation Xrotation
                          JOINT LeftHandMiddleEnd
                          {
                            OFFSET 2.304287 -0.294569 -0.031741
                            CHANNELS 3 Zrotation Yrotation Xrotation
                          }
                        }
                      }
                    }
                  }
                  JOINT LeftHandRing1
                  {
                    OFFSET 2.882643 -0.053652 -0.322543
                    CHANNELS 3 Zrotation Yrotation Xrotation
                    JOINT LeftHandRing2
                    {
                      OFFSET 5.854541 -0.486202 -1.373841
                      CHANNELS 3 Zrotation Yrotation Xrotation
                      JOINT LeftHandRing3
                      {
                        OFFSET 4.350578 0.0 3e-06
                        CHANNELS 3 Zrotation Yrotation Xrotation
                        JOINT LeftHandRing4
                        {
                          OFFSET 2.651321 7e-06 2e-06
                          CHANNELS 3 Zrotation Yrotation Xrotation
                          JOINT LeftHandRingEnd
                          {
                            OFFSET 1.936105 0.077687 -7.1e-05
                            CHANNELS 3 Zrotation Yrotation Xrotation
                          }
                        }
                      }
                    }
                  }
                  JOINT LeftHandPinky1
                  {
                    OFFSET 2.8655 -0.310005 -1.600378
                    CHANNELS 3 Zrotation Yrotation Xrotation
                    JOINT LeftHandPinky2
                    {
                      OFFSET 5.087849 -1.331141 -1.77123
                      CHANNELS 3 Zrotation Yrotation Xrotation
                      JOINT LeftHandPinky3
                      {
                        OFFSET 3.070974 4e-06 0.0
                        CHANNELS 3 Zrotation Yrotation Xrotation
                        JOINT LeftHandPinky4
                        {
                          OFFSET 1.549672 0.0 1e-06
                          CHANNELS 3 Zrotation Yrotation Xrotation
                          JOINT LeftHandPinkyEnd
                          {
                            OFFSET 1.944893 -0.157802 0.057219
                            CHANNELS 3 Zrotation Yrotation Xrotation
                          }
                        }
                      }
                    }
                  }
                }
              }
            }
          }
          JOINT RightShoulder
          {
            OFFSET -1.380118 23.180309 5.214158
            CHANNELS 3 Zrotation Yrotation Xrotation
            JOINT RightArm
            {
              OFFSET -15.037196 1.2e-05 -5.545604
              CHANNELS 3 Zrotation Yrotation Xrotation
              JOINT RightForeArm
              {
                OFFSET -28.736639 2e-06 -0.002597
                CHANNELS 3 Zrotation Yrotation Xrotation
                JOINT RightHand
                {
                  OFFSET -27.133619 -0.0 0.002613
                  CHANNELS 3 Zrotation Yrotation Xrotation
                  JOINT RightHandThumb1
                  {
                    OFFSET -2.274032 -1.383988 3.163127
                    CHANNELS 3 Zrotation Yrotation Xrotation
                    JOINT RightHandThumb2
                    {
                      OFFSET -4.011429 -1.827466 1.640914
                      CHANNELS 3 Zrotation Yrotation Xrotation
                      JOINT RightHandThumb3
                      {
                        OFFSET -2.794935 -4e-06 -3e-06
                        CHANNELS 3 Zrotation Yrotation Xrotation
                        JOINT RightHandThumbEnd
                        {
                          OFFSET -3.183852 4e-06 1e-06
                          CHANNELS 3 Zrotation Yrotation Xrotation
                        }
                      }
                    }
                  }
                  JOINT RightHandIndex1
                  {
                    OFFSET -3.253266 -0.520057 2.282866
                    CHANNELS 3 Zrotation Yrotation Xrotation
                    JOINT RightHandIndex2
                    {
                      OFFSET -6.341917 0.012471 0.178266
                      CHANNELS 3 Zrotation Yrotation Xrotation
                      JOINT RightHandIndex3
                      {
                        OFFSET -3.654871 -8e-06 -0.0
                        CHANNELS 3 Zrotation Yrotation Xrotation
                        JOINT RightHandIndex4
                        {
                          OFFSET -2.327586 0.0 1e-06
                          CHANNELS 3 Zrotation Yrotation Xrotation
                          JOINT RightHandIndexEnd
                          {
                            OFFSET -2.76179 -0.180656 -0.113078
                            CHANNELS 3 Zrotation Yrotation Xrotation
                          }
                        }
                      }
                    }
                  }
                  JOINT RightHandMiddle1
                  {
                    OFFSET -3.168106 0.246593 1.00103
                    CHANNELS 3 Zrotation Yrotation Xrotation
                    JOINT RightHandMiddle2
                    {
                      OFFSET -6.180828 -0.258836 -1.000895
                      CHANNELS 3 Zrotation Yrotation Xrotation
                      JOINT RightHandMiddle3
                      {
                        OFFSET -4.348901 0.0 -0.0
                        CHANNELS 3 Zrotation Yrotation Xrotation
                        JOINT RightHandMiddle4
                        {
                          OFFSET -3.00024 -4e-06 -2e-06
                          CHANNELS 3 Zrotation Yrotation Xrotation
                          JOINT RightHandMiddleEnd
                          {
                            OFFSET -2.30252 -0.29437 -0.031706
                            CHANNELS 3 Zrotation Yrotation Xrotation
                          }
                        }
                      }
                    }
                  }
                  JOINT RightHandRing1
                  {
                    OFFSET -2.88569 -0.067952 -0.308858
                    CHANNELS 3 Zrotation Yrotation Xrotation
                    JOINT RightHandRing2
                    {
                      OFFSET -5.854198 -0.48613 -1.373731
                      CHANNELS 3 Zrotation Yrotation Xrotation
                      JOINT RightHandRing3
                      {
                        OFFSET -4.33881 -4e-06 -0.0
                        CHANNELS 3 Zrotation Yrotation Xrotation
                        JOINT RightHandRing4
                        {
                          OFFSET -2.654903 -4e-06 4e-06
                          CHANNELS 3 Zrotation Yrotation Xrotation
                          JOINT RightHandRingEnd
                          {
                            OFFSET -1.933568 0.077527 -5.2e-05
                            CHANNELS 3 Zrotation Yrotation Xrotation
                          }
                        }
                      }
                    }
                  }
                  JOINT RightHandPinky1
                  {
                    OFFSET -2.866425 -0.342796 -1.584145
                    CHANNELS 3 Zrotation Yrotation Xrotation
                    JOINT RightHandPinky2
                    {
                      OFFSET -5.091371 -1.332055 -1.772385
                      CHANNELS 3 Zrotation Yrotation Xrotation
                      JOINT RightHandPinky3
                      {
                        OFFSET -3.062664 -4e-06 1e-06
                        CHANNELS 3 Zrotation Yrotation Xrotation
                        JOINT RightHandPinky4
                        {
                          OFFSET -1.546529 4e-06 -2e-06
                          CHANNELS 3 Zrotation Yrotation Xrotation
                          JOINT RightHandPinkyEnd
                          {
                            OFFSET -1.945119 -0.157718 0.057211
                            CHANNELS 3 Zrotation Yrotation Xrotation
                          }
                        }
                      }
                    }
                  }
                }
              }
            }
          }
        }
      }
    }
    JOINT LeftLeg
    {
      OFFSET 10.043214 -8.434526 2.595655
      CHANNELS 3 Zrotation Yrotation Xrotation
      JOINT LeftShin
      {
        OFFSET -1e-06 -43.221752 -0.802913
        CHANNELS 3 Zrotation Yrotation Xrotation
        JOINT LeftFoot
        {
          OFFSET 1e-06 -42.155094 -3.481523
          CHANNELS 3 Zrotation Yrotation Xrotation
          JOINT LeftToeBase
          {
            OFFSET 0.0 -5.059472 13.231529
            CHANNELS 3 Zrotation Yrotation Xrotation
            JOINT LeftToeEnd
            {
              OFFSET -0.009607 -1.647619 6.513017
              CHANNELS 3 Zrotation Yrotation Xrotation
            }
          }
        }
      }
    }
    JOINT RightLeg
    {
      OFFSET -10.047278 -8.29526 2.620317
      CHANNELS 3 Zrotation Yrotation Xrotation
      JOINT RightShin
      {
        OFFSET 1e-06 -43.362206 -0.805556
        CHANNELS 3 Zrotation Yrotation Xrotation
        JOINT RightFoot
        {
          OFFSET 2e-06 -42.117393 -3.478398
          CHANNELS 3 Zrotation Yrotation Xrotation
          JOINT RightToeBase
          {
            OFFSET -0.0 -5.079609 13.284196
            CHANNELS 3 Zrotation Yrotation Xrotation
            JOINT RightToeEnd
            {
              OFFSET 0.009532 -1.634378 6.460591
              CHANNELS 3 Zrotation Yrotation Xrotation
            }
          }
        }
      }
    }
  }
}
MOTION
Frames: 5
Frame Time: 0.03333333333333333
0.0 0.0 0.0 0.0 -0.0 0.0 1.331499 87.224312 -2.002452 2.290511 -3.927524 29.287388 -0.895162 -0.605207 5.457351 -0.106113 -0.491763 -0.877942 0.315707 -1.530051 13.584112 -2.303284 3.469799 -17.543306 -1.352377 -3.603475 -3.747787 4.637717 -6.623406 -15.067327 7.7e-05 -2.2e-05 6e-06 0.023024 0.091203 -0.092 0.749513 -3.58225 -10.675732 -0.70911 3.760044 -10.723236 -17.929108 -9.783977 14.268287 -54.242413 1.183636 13.272307 -0.121791 -33.907223 2.066637 -2.230296 1.292597 -32.413254 -5.88211 9.86129 0.70259 -10.936877 -0.360575 7.156208 -0.0 8.774831 -1e-06 -16.303955 17.091618 5.484888 -1.844033 2.498505 -2.507278 -10.163604 4.678948 4.621109 -20.976038 -4e-06 1e-06 -21.226295 2.451698 -3.594003 -0.0 -4e-06 -0.0 -1.362682 2.240798 -0.746323 -21.334925 0.584911 3.008323 -13.821221 -1e-06 2e-06 -23.887182 -0.249077 -0.839485 -59.75732 2.071692 -0.015706 -0.294025 1.679687 0.833257 -14.218217 0.093217 1.30058 -34.21207 -0.287567 0.967169 -20.033226 0.964535 1.212843 -0.0 0.0 -1e-06 -3.44039 0.788234 0.501655 -15.928194 -3.167312 2.999707 -6.338829 0.0 0.0 -18.123457 3.648184 -4.905674 -5e-06 0.0 -2e-06 12.801378 14.319875 14.494526 66.432861 3.647949 -0.030645 1.710938 29.038406 1.213288 9.821669 10.174404 -13.900589 2.243542 -5.255039 -3.180159 14.282898 -0.826597 6.952507 -1e-06 -12.690609 1e-06 16.121492 -17.080894 1.805209 1.665668 -1.955921 -2.8783 4.727803 -4.17059 4.993927 11.020534 2e-06 0.0 12.109058 -3.735718 -2.866784 -0.0 -0.0 -0.0 1.291987 -1.928549 -1.49809 14.800139 0.567465 3.865611 14.242582 -1.341738 -6.660661 19.631981 0.143924 -0.648244 49.452938 -0.25789 -6.273664 0.353029 -1.511152 -0.03194 20.222805 3.684309 2.316633 18.787287 3e-06 -0.0 10.751636 -0.47987 1.397906 -0.0 0.0 1e-06 3.273809 0.305947 -0.580111 21.486828 11.830378 2.266135 8.16293 0.0 -0.0 18.399096 -3.798989 -4.940578 3e-06 0.0 -1e-06 1.330709 -2.180668 -67.720505 -0.464226 -0.417566 62.188019 -6.194735 2.831965 -22.303768 1.698089 -2.011619 -1.695464 0.0 -0.0 2e-06 -3.247848 -5.302313 -68.28521 0.054923 0.007991 63.703808 5.61151 -8.317312 -23.327576 -1.455274 1.070069 -1.130673 0.0 0.0 -1e-06 
0.0 0.0 0.0 0.0 -0.0 0.0 1.102888 84.266411 -2.175524 2.187149 -4.192522 28.141556 -1.048335 -0.662568 5.652249 -0.301591 -0.421453 -0.416861 0.326354 -1.63995 14.174855 -2.135203 2.965807 -20.823845 -1.269815 -3.112225 -3.633657 4.052417 -6.340537 -14.222268 7.7e-05 -2.2e-05 6e-06 0.035786 0.055448 -0.046675 0.768512 -3.606444 -10.555409 -0.703529 3.716647 -10.613367 -17.689032 -13.086772 13.200374 -51.10408 -6.046858 13.631033 -0.48096 -28.686823 1.34438 2.418154 2.205466 -31.614136 -5.882108 9.86129 0.70259 -10.936873 -0.360574 7.156208 0.0 8.774828 -0.0 -16.7547 16.963768 5.132634 -1.844033 2.498505 -2.507278 -10.163602 4.678947 4.621111 -20.97603 -2e-06 2e-06 -21.226292 2.451699 -3.594003 -0.0 -7e-06 1e-06 -1.362683 2.2408 -0.746324 -21.334921 0.58491 3.008324 -13.82122 -4e-06 2e-06 -23.887178 -0.249079 -0.839483 -60.511181 1.996976 0.018289 -0.294025 1.679689 0.833256 -14.218214 0.093216 1.300581 -34.212055 -0.287561 0.967171 -20.033218 0.964539 1.212842 -0.0 0.0 0.0 -3.440389 0.788234 0.501656 -15.928189 -3.16731 2.999707 -6.338826 0.0 0.0 -18.123447 3.648185 -4.905673 -5e-06 1e-06 -2e-06 15.049774 17.537376 13.908536 60.316151 9.470612 -3.865399 1.192747 24.372503 0.900795 2.5634 9.228901 -12.358699 2.243543 -5.25504 -3.180159 14.282897 -0.826595 6.952507 -2e-06 -12.690615 -1e-06 16.829937 -17.222555 1.473973 1.665668 -1.955923 -2.8783 4.7278 -4.17059 4.993925 11.020532 2e-06 -2e-06 12.109058 -3.735718 -2.866786 1e-06 -0.0 0.0 1.291986 -1.928551 -1.49809 14.800136 0.567468 3.865609 14.242579 -1.341737 -6.660662 19.631975 0.143927 -0.648246 49.533009 -0.239555 -6.323388 0.353029 -1.511151 -0.03194 20.222803 3.684313 2.316631 18.787287 5e-06 -2e-06 10.751634 -0.479869 1.397906 -1e-06 -0.0 -0.0 3.273808 0.305946 -0.580111 21.486824 11.830383 2.266133 8.16293 2e-06 -1e-06 18.399092 -3.798987 -4.94058 4e-06 -0.0 -1e-06 1.102612 -1.107372 -70.458473 -0.565606 -0.355836 69.798752 -6.612348 1.055382 -24.793358 1.690389 -2.04602 -1.959084 -0.0 -0.0 2e-06 -3.031022 -5.474998 -70.890167 0.009045 -0.102135 70.805771 5.615142 -7.044541 -26.210485 -1.462337 0.968213 -0.825935 0.0 0.0 -1e-06 
0.0 0.0 0.0 0.0 -0.0 0.0 1.060096 80.793633 -2.157221 2.18789 -4.695844 25.941833 -1.103667 -0.669481 5.790024 -0.508083 -0.350553 -0.067831 0.138234 -1.782596 14.955565 -2.053901 2.544186 -23.417498 -1.191051 -2.726226 -3.540473 3.599008 -5.950236 -13.225746 7.7e-05 -2.2e-05 6e-06 0.033721 0.044651 -0.020742 0.759093 -3.599598 -10.403457 -0.698254 3.693808 -10.483342 -17.347351 -16.501904 11.802364 -46.230278 -14.903152 15.559628 -0.668173 -22.779972 0.811289 6.974103 3.787697 -30.390333 -5.882103 9.861284 0.702591 -10.936871 -0.360576 7.156203 3e-06 8.774824 -0.0 -17.156509 17.214527 5.001746 -1.844032 2.498504 -2.507277 -10.163598 4.678944 4.621108 -20.976021 -6e-06 4e-06 -21.22628 2.451695 -3.593997 -1e-06 -6e-06 1e-06 -1.362681 2.240797 -0.746322 -21.334913 0.584906 3.008324 -13.821214 -5e-06 4e-06 -23.887167 -0.249081 -0.83948 -61.164112 1.950922 -0.095851 -0.294024 1.679688 0.833256 -14.218207 0.093213 1.300579 -34.212048 -0.287569 0.967175 -20.033211 0.964535 1.212847 -0.0 1e-06 1e-06 -3.440388 0.788233 0.501656 -15.928185 -3.167311 2.999706 -6.338826 -1e-06 1e-06 -18.123442 3.64818 -4.905668 -3e-06 0.0 -2e-06 16.07485 20.845476 12.909938 54.047474 14.935827 -6.835742 0.435102 20.994703 0.560286 -3.512438 7.929097 -12.232866 2.243542 -5.255037 -3.180157 14.282896 -0.826596 6.952503 -2e-06 -12.690601 0.0 17.380005 -17.39732 1.412674 1.665666 -1.955922 -2.878298 4.727801 -4.170587 4.993923 11.020529 2e-06 -0.0 12.109056 -3.735716 -2.866783 0.0 0.0 -0.0 1.291986 -1.928549 -1.49809 14.800134 0.567467 3.865608 14.242577 -1.341738 -6.660657 19.631973 0.143924 -0.648245 49.732521 -0.332778 -6.519572 0.353029 -1.511151 -0.03194 20.222797 3.684307 2.316631 18.787281 3e-06 -1e-06 10.751631 -0.479869 1.397905 -1e-06 0.0 0.0 3.273808 0.305946 -0.580111 21.486816 11.830371 2.266133 8.162929 1e-06 -1e-06 18.399088 -3.798985 -4.940576 2e-06 -0.0 -1e-06 0.709981 -0.192489 -72.180359 -0.630028 -0.306393 78.02459 -6.951308 -0.403763 -27.667864 1.687251 -2.070957 -2.154668 0.0 0.0 2e-06 -3.546636 -5.154063 -72.541245 -0.100902 -0.178244 78.549332 5.926205 -6.201146 -29.540411 -1.467813 0.845696 -0.132875 0.0 0.0 -1e-06 
0.0 0.0 0.0 0.0 -0.0 0.0 1.110641 77.4049 -2.144024 2.20759 -5.073159 22.885826 -1.068043 -0.618663 5.928513 -0.647342 -0.310736 0.118952 -0.211695 -1.953316 15.842134 -1.922958 2.239969 -25.012156 -1.082355 -2.653077 -3.55973 3.279364 -5.45408 -12.16594 7.7e-05 -2.3e-05 6e-06 0.032069 0.000305 -0.038281 0.72794 -3.642266 -10.365159 -0.668884 3.652008 -10.458922 -17.038837 -20.057428 10.323102 -39.061886 -24.929354 15.696279 -0.407437 -16.790728 0.311575 11.085962 6.775906 -29.318995 -5.882106 9.861286 0.702592 -10.936872 -0.360574 7.156204 -0.0 8.774827 -1e-06 -17.28665 18.066147 5.375063 -1.844032 2.498504 -2.507278 -10.163599 4.678945 4.621107 -20.976023 -2e-06 4e-06 -21.226286 2.4517 -3.593999 -1e-06 -7e-06 -1e-06 -1.362682 2.240798 -0.746322 -21.334913 0.584911 3.008321 -13.821214 -0.0 1e-06 -23.887171 -0.249076 -0.839482 -61.442024 2.164282 -0.416368 -0.294024 1.679687 0.833258 -14.218208 0.093215 1.30058 -34.212051 -0.287563 0.96717 -20.033211 0.964538 1.212844 1e-06 -0.0 1e-06 -3.440389 0.788233 0.501655 -15.928185 -3.167309 2.999708 -6.338826 -1e-06 -1e-06 -18.123444 3.648183 -4.90567 -5e-06 -0.0 -2e-06 14.970428 23.465162 10.998658 48.852295 19.516262 -7.093824 0.439974 22.688602 0.4481 -6.243476 9.236609 -14.914198 2.243543 -5.255038 -3.180159 14.2829 -0.826596 6.952506 -2e-06 -12.690609 2e-06 17.527802 -17.919661 1.504148 1.665667 -1.955922 -2.8783 4.727802 -4.170589 4.993927 11.020534 3e-06 -2e-06 12.109059 -3.735717 -2.866786 1e-06 0.0 0.0 1.291987 -1.92855 -1.49809 14.800139 0.567467 3.865608 14.242583 -1.341736 -6.660662 19.631985 0.143926 -0.648247 50.088459 -0.56618 -6.833712 0.35303 -1.511151 -0.03194 20.222809 3.68431 2.31663 18.787289 5e-06 -3e-06 10.751637 -0.479868 1.397905 -2e-06 0.0 0.0 3.273809 0.305946 -0.580111 21.486828 11.830379 2.266132 8.162933 1e-06 -1e-06 18.399092 -3.798986 -4.940579 3e-06 0.0 -1e-06 0.664785 0.025734 -72.634613 -0.622851 -0.266012 85.632919 -7.133488 -0.895331 -30.035982 1.698641 -2.056007 -2.487933 0.0 -0.0 2e-06 -4.389903 -4.328707 -72.909363 -0.161825 -0.094575 85.738747 6.594649 -6.158878 -32.408581 -1.476018 0.790889 0.530469 0.0 0.0 -1e-06 
0.0 0.0 0.0 0.0 -0.0 0.0 1.109751 74.325806 -2.268964 2.12488 -5.018158 19.514547 -1.070871 -0.58022 6.198219 -0.720262 -0.27271 0.270586 -0.571173 -2.221618 16.339298 -1.403913 2.043963 -25.665443 -1.000759 -2.527135 -3.616642 3.153688 -5.246235 -11.353357 7.7e-05 -2.2e-05 6e-06 0.03528 -0.059445 -0.089248 0.711995 -3.717272 -10.455229 -0.644448 3.60912 -10.550047 -16.121096 -23.894821 8.530924 -29.323402 -33.712368 9.483895 0.619733 -14.093306 -0.128372 14.32812 8.507341 -28.097363 -5.882114 9.861293 0.70259 -10.936881 -0.360574 7.156214 -0.0 8.774831 -2e-06 -16.553396 18.913548 6.273609 -1.844034 2.498507 -2.507281 -10.163611 4.678948 4.621113 -20.976044 -2e-06 -1e-06 -21.226309 2.451698 -3.594005 0.0 -6e-06 -1e-06 -1.362683 2.2408 -0.746324 -21.334934 0.584911 3.008326 -13.821227 -2e-06 0.0 -23.887196 -0.24908 -0.839485 -61.334751 2.553793 -0.852879 -0.294025 1.679688 0.833255 -14.218224 0.093216 1.300581 -34.212082 -0.287564 0.96717 -20.033232 0.964535 1.212842 0.0 1e-06 -0.0 -3.440393 0.788234 0.501656 -15.928203 -3.167311 2.999709 -6.338833 -1e-06 2e-06 -18.123468 3.648184 -4.905676 -4e-06 0.0 -1e-06 11.982752 25.228287 8.367273 44.195957 23.866472 -5.985406 1.252187 30.089254 0.652963 -7.460628 12.850704 -18.84981 2.243542 -5.255039 -3.18016 14.282896 -0.826597 6.952506 -1e-06 -12.690611 1e-06 17.065186 -18.28072 1.831526 1.665667 -1.955922 -2.878299 4.727801 -4.170592 4.993927 11.020531 3e-06 -1e-06 12.109057 -3.73572 -2.866787 -0.0 -1e-06 0.0 1.291986 -1.92855 -1.49809 14.800132 0.567467 3.86561 14.242578 -1.341738 -6.660662 19.631975 0.143925 -0.648245 49.925037 -0.81935 -6.869305 0.353029 -1.511152 -0.03194 20.222801 3.68431 2.316631 18.787281 4e-06 0.0 10.751634 -0.47987 1.397908 1e-06 1e-06 -1e-06 3.273808 0.305948 -0.58011 21.48682 11.830379 2.266133 8.162933 -0.0 0.0 18.39909 -3.79899 -4.940577 4e-06 -0.0 -0.0 1.123154 -0.415736 -72.414062 -0.57911 -0.230138 92.313644 -7.308587 -0.75596 -31.479496 1.712033 -2.048885 -3.195999 0.0 0.0 2e-06 -4.992629 -3.347497 -72.467117 -0.142535 0.050423 92.046776 7.512703 -6.681946 -34.489384 -1.483584 0.77935 0.801493 0.0 0.0 -1e-06 
